<svg width="18" height="17" viewBox="0 0 18 17" fill="none" xmlns="http://www.w3.org/2000/svg">
<path d="M7.43102 12.9887H1.40259" stroke="#4F46E5" stroke-width="1.5" stroke-linecap="round" stroke-linejoin="round"/>
<path fill-rule="evenodd" clip-rule="evenodd" d="M16.5981 12.9889C16.5981 14.3144 15.5236 15.3889 14.1981 15.3889C12.8726 15.3889 11.7981 14.3144 11.7981 12.9889C11.7981 11.6624 12.8726 10.5889 14.1981 10.5889C15.5236 10.5889 16.5981 11.6624 16.5981 12.9889Z" stroke="#4F46E5" stroke-width="1.5" stroke-linecap="round" stroke-linejoin="round"/>
<path d="M10.5688 3.21847H16.5983" stroke="#4F46E5" stroke-width="1.5" stroke-linecap="round" stroke-linejoin="round"/>
<path fill-rule="evenodd" clip-rule="evenodd" d="M1.4021 3.21836C1.4021 4.54483 2.47661 5.61836 3.8021 5.61836C5.12759 5.61836 6.2021 4.54483 6.2021 3.21836C6.2021 1.89287 5.12759 0.818359 3.8021 0.818359C2.47661 0.818359 1.4021 1.89287 1.4021 3.21836Z" stroke="#4F46E5" stroke-width="1.5" stroke-linecap="round" stroke-linejoin="round"/>
</svg>
